<svg width="256" height="256" viewBox="0 0 256 256" fill="none" xmlns="http://www.w3.org/2000/svg">
  <defs>
    <linearGradient id="bg" x1="32" y1="20" x2="220" y2="232" gradientUnits="userSpaceOnUse">
      <stop stop-color="#0E7C86"/>
      <stop offset="1" stop-color="#174D8C"/>
    </linearGradient>
    <linearGradient id="sheet" x1="84" y1="68" x2="182" y2="196" gradientUnits="userSpaceOnUse">
      <stop stop-color="#F6FBFC"/>
      <stop offset="1" stop-color="#D4ECF0"/>
    </linearGradient>
  </defs>
  <rect x="20" y="20" width="216" height="216" rx="52" fill="url(#bg)"/>
  <path d="M85 58C85 49.1634 92.1634 42 101 42H147L183 78V178C183 186.837 175.837 194 167 194H101C92.1634 194 85 186.837 85 178V58Z" fill="url(#sheet)"/>
  <path d="M147 42V67C147 73.0751 151.925 78 158 78H183" fill="#B7DCE3"/>
  <path d="M111 104H155" stroke="#0E7C86" stroke-width="12" stroke-linecap="round"/>
  <path d="M111 130H155" stroke="#0E7C86" stroke-width="12" stroke-linecap="round" opacity="0.85"/>
  <path d="M111 156H138" stroke="#0E7C86" stroke-width="12" stroke-linecap="round" opacity="0.7"/>
  <circle cx="74" cy="164" r="28" fill="#F6C453"/>
  <path d="M63 164L71 172L87 154" stroke="#18415A" stroke-width="10" stroke-linecap="round" stroke-linejoin="round"/>
</svg>